<?xml version="1.0" encoding="UTF-8" standalone="no"?>
<!-- Created with Inkscape (http://www.inkscape.org/) -->

<svg
   xmlns:dc="http://purl.org/dc/elements/1.1/"
   xmlns:cc="http://creativecommons.org/ns#"
   xmlns:rdf="http://www.w3.org/1999/02/22-rdf-syntax-ns#"
   xmlns:svg="http://www.w3.org/2000/svg"
   xmlns="http://www.w3.org/2000/svg"
   xmlns:xlink="http://www.w3.org/1999/xlink"
   xmlns:sodipodi="http://sodipodi.sourceforge.net/DTD/sodipodi-0.dtd"
   xmlns:inkscape="http://www.inkscape.org/namespaces/inkscape"
   version="1.1"
   id="svg2"
   width="1050"
   height="400"
   viewBox="0 0 1050 400"
   sodipodi:docname="ak74.svg"
   inkscape:version="0.92.4 (5da689c313, 2019-01-14)">
  <metadata
     id="metadata8">
    <rdf:RDF>
      <cc:Work
         rdf:about="">
        <dc:format>image/svg+xml</dc:format>
        <dc:type
           rdf:resource="http://purl.org/dc/dcmitype/StillImage" />
        <dc:title></dc:title>
      </cc:Work>
    </rdf:RDF>
  </metadata>
  <defs
     id="defs6" />
  <sodipodi:namedview
     pagecolor="#ffffff"
     bordercolor="#666666"
     borderopacity="1"
     objecttolerance="10"
     gridtolerance="10"
     guidetolerance="10"
     inkscape:pageopacity="0"
     inkscape:pageshadow="2"
     inkscape:window-width="1920"
     inkscape:window-height="1057"
     id="namedview4"
     showgrid="false"
     fit-margin-top="0"
     fit-margin-left="0"
     fit-margin-right="0"
     fit-margin-bottom="0"
     inkscape:zoom="1.9745455"
     inkscape:cx="307.45757"
     inkscape:cy="203.77379"
     inkscape:window-x="-8"
     inkscape:window-y="-8"
     inkscape:window-maximized="1"
     inkscape:current-layer="svg2" />
  <image
     width="733.33331"
     height="300"
     preserveAspectRatio="none"
     xlink:href="file:///C:/Users/demel/Desktop/ak74.png"
     id="image10"
     x="0"
     y="100"
     sodipodi:absref="C:\Users\demel\Desktop\ak74.png" />
  <path
     style="fill:none;stroke:#000000;stroke-width:1px;stroke-linecap:butt;stroke-linejoin:miter;stroke-opacity:1"
     d="m 188.18741,249.2352 -24.88872,4.65545 -36.70639,6.08789 -30.797565,8.59466 -54.432896,17.54745 -5.908834,1.6115 -9.31089,-0.89528 -3.223001,-1.6115 -0.895278,-1.6115 v -4.29733 l 2.462015,-13.29488 -0.940042,-1.34291 -0.179056,-3.31253 0.22382,-2.32773 1.298153,-1.25338 1.119097,-1.43245 0.492403,-33.75198 c 0,0 0.80575,-1.4772 0.984806,-1.56673 0.179055,-0.0895 1.566736,-1.1191 1.566736,-1.1191 l 3.088709,-0.26858 90.870703,0.85051 1.0047,0.0315 0.91793,0.22157 1.26612,0.56975 3.22859,1.0762 2.69049,0.6014 1.83587,0.47479 1.86752,0.12662 6.48202,0.0316 8.10227,-0.9848 7.78892,-0.89528 9.31089,-2.64107 4.93825,-1.17631 12.66114,-0.25323 1.1395,27.22146 z"
     id="path819"
     inkscape:connector-curvature="0" />
  <path
     style="fill:none;stroke:#000000;stroke-width:1px;stroke-linecap:butt;stroke-linejoin:miter;stroke-opacity:1"
     d="m 234.23112,246.29374 -0.37984,17.47238 -3.92495,0.88628 -2.27901,1.26611 -1.26611,2.2157 -13.48412,37.6669 -0.0633,1.70925 0.0633,1.32942 0.50645,0.44314 0.37983,1.20281 0.37984,0.88628 -0.0633,2.84876 -0.37983,1.58264 -0.31653,0.56975 -1.26611,1.20281 -1.45604,0.44314 -2.15239,0.31653 -5.00115,-0.18992 -1.89917,-0.25322 -1.83587,-0.69637 -11.58494,-3.67173 -1.58264,-0.94958 -1.26612,-1.45603 -1.01289,-1.58265 -0.25322,-1.77256 0.31653,-1.83586 0.63305,-2.1524 2.72215,-7.7866 11.64825,-33.04558 0.44314,-2.08908 -0.15827,-2.12075 -0.82297,-1.39272 c 0,0 -1.1395,-1.80421 -1.20281,-1.93083 -0.0633,-0.12661 -0.94958,-1.7409 -0.94958,-1.7409 l -0.12662,-1.64595 c 0,0 -0.12661,-5.63421 -0.12661,-5.76082 0,-0.12661 1.32942,-1.17116 1.48769,-1.20281 0.15826,-0.0317 1.51933,-0.34818 1.51933,-0.34818 l 3.45017,-0.31653 5.31767,-0.15826 13.95891,-0.22157 9.08437,-0.095 1.86752,0.56975 0.63306,1.1395 z"
     id="path821"
     inkscape:connector-curvature="0" />
  <path
     style="fill:none;stroke:#000000;stroke-width:1px;stroke-linecap:butt;stroke-linejoin:miter;stroke-opacity:1"
     d="m 331.34207,240.97606 0.50645,9.62247 1.77256,9.74908 1.70925,8.16644 1.89917,5.76082 3.60843,10.0656 3.48181,11.0785 2.08909,6.77371 2.65884,5.5076 6.6471,12.28131 2.91206,4.4947 1.96248,3.86165 3.2919,3.60842 3.60842,3.10198 0.88628,1.26612 0.12661,0.63306 -1.1395,1.70925 -2.59553,2.78545 -6.90033,5.38099 -2.02578,0.12661 -0.88628,0.69636 0.0633,1.0762 -2.46893,1.45603 -0.25322,1.83586 -0.82297,0.88628 -1.26612,0.63306 -1.51933,0.31653 -0.56975,-0.12661 -5.12777,3.79834 -9.30594,6.52049 -5.69751,1.83586 -0.56975,-1.26611 0.18992,-1.01289 -9.62247,-20.13122 -9.81239,-19.37154 -8.67288,-21.96708 -4.24148,-12.59784 -4.55801,-17.40907 -1.77256,-7.09024 -2.72215,-5.69751 -1.32942,-8.10313 -0.18991,-9.81239 0.25322,-0.25322 32.72905,-1.1395 10.63536,-0.44314 1.70925,0.44314 z"
     id="path823"
     inkscape:connector-curvature="0" />
  <path
     style="fill:none;stroke:#000000;stroke-width:1px;stroke-linecap:butt;stroke-linejoin:miter;stroke-opacity:1"
     d="m 363.75459,210.84255 -0.75966,31.65285 3.79834,2.78545 5.06446,0.12661 5.06445,-1.51933 7.59669,-3.41851 4.4314,-1.64595 5.5709,-0.75967 74.57412,-3.2919 0.36401,-0.61723 0.55393,-0.14244 0.22157,0.20575 0.0317,0.61723 1.40855,0.095 4.00409,-0.34818 0.75966,-0.75967 0.25323,-1.32942 0.18991,-11.26842 -0.37983,-11.83817 -0.58558,-0.64888 -0.55392,-0.14244 -0.63306,-14.21213 -0.91793,-0.63306 -2.53223,-0.0633 -1.23446,0.12662 -0.31653,0.41148 -0.75967,0.28488 -0.69636,-0.28488 -1.32942,-0.98124 -0.34818,-0.15826 -42.6997,-0.69636 -23.88485,-0.0934 -0.58193,0.85051 h -0.35812 l -0.44763,-1.47721 -3.49159,-0.0895 -0.67146,2.05914 -0.53716,0.49241 -0.40288,15.39878 -29.36511,0.40287 z"
     id="path825"
     inkscape:connector-curvature="0" />
  <path
     style="fill:none;stroke:#000000;stroke-width:1px;stroke-linecap:butt;stroke-linejoin:miter;stroke-opacity:1"
     d="m 384.3428,190.01257 -0.0895,1.56673 -2.46201,1.70103 -3.67064,1.20863 -5.23737,0.13429 -6.49077,-0.0448 -3.58111,0.35811 -2.41725,1.34292 -4.65545,0.53716 -5.05832,-0.0448 -1.83532,-0.76098 -0.17905,-2.2382 -1.02957,-0.67146 -0.98481,0.89528 -1.11909,0.0448 -0.40288,-0.67146 -0.17905,-2.37248 -0.17906,-1.6115 -0.35811,-2.55155 -0.31335,-1.07433 0.0895,-0.58193 0.58193,0.0448 0.76099,0.62669 0.85051,0.85052 0.35811,1.25339 -0.0895,0.4924 0.85052,-0.13429 0.44764,-0.98481 c 0,0 0.59564,-0.76192 0.67477,-0.76192 0.0791,0 1.04455,-0.69637 1.04455,-0.69637 l 1.02871,-0.0791 0.96542,0.095 0.77549,0.2374 0.69636,0.41149 0.44314,0.47479 0.0317,0.52227 0.0475,0.90211 19.13639,0.0135 1.79055,-0.53717 3.223,-0.53717 2.66003,-0.52181 c 0,0 1.17116,0.28487 1.29777,0.34818 0.12661,0.0633 1.01289,1.48768 1.01289,1.48768 l 1.17116,0.41149 z"
     id="path827"
     inkscape:connector-curvature="0" />
  <path
     style="fill:none;stroke:#000000;stroke-width:1px;stroke-linecap:butt;stroke-linejoin:miter;stroke-opacity:1"
     d="m 609.14708,210.91731 0.80575,6.62505 0.0895,5.10309 -0.17905,4.38686 -0.17906,2.14867 48.52406,-0.26859 c 0,0 0.91766,-0.44764 1.00719,-0.4924 0.0895,-0.0448 0.96242,-0.67146 0.96242,-0.67146 l 0.51479,-0.55955 0.67146,-0.62669 0.22382,-0.96243 4.79954,-0.1337 0.44314,-0.42731 0.34818,-0.66471 0.57536,-1.32582 0.11191,-1.53316 -0.0224,-1.68984 0.056,-2.60749 -0.27771,-0.82021 -0.35609,-0.50644 -0.42732,-0.57767 -0.37192,-0.43523 -0.73593,-0.34026 -0.81506,-0.18992 -3.16528,-0.0554 -0.58766,-0.82386 -0.53717,-0.89528 -0.53716,-0.62669 -1.23101,-0.6267 -2.77536,-0.29096 -22.53862,0.20143 -1.88009,-0.22381 z"
     id="path829"
     inkscape:connector-curvature="0" />
</svg>
